<mxfile host="app.diagrams.net" modified="2023-03-04T05:59:11.280Z" agent="5.0 (Windows NT 10.0; Win64; x64) AppleWebKit/537.36 (KHTML, like Gecko) Chrome/110.0.0.0 Safari/537.36" etag="KD7EEhHuxkTEeALrAoVs" version="21.0.2" type="github">
  <diagram name="Page-1" id="iRhx-aNdycyiNb6yXR51">
    <mxGraphModel dx="1434" dy="1877" grid="1" gridSize="10" guides="1" tooltips="1" connect="1" arrows="1" fold="1" page="1" pageScale="1" pageWidth="850" pageHeight="1100" math="0" shadow="0">
      <root>
        <mxCell id="0" />
        <mxCell id="1" parent="0" />
        <mxCell id="_8RcxRiG8b48MhW-PYv1-1" value="Create Definition using A and B as Strings" style="ellipse;whiteSpace=wrap;html=1;" vertex="1" parent="1">
          <mxGeometry x="80" y="10" width="120" height="80" as="geometry" />
        </mxCell>
        <mxCell id="_8RcxRiG8b48MhW-PYv1-2" value="Create a python function named myfunction with parameters A and B (of string type.&lt;br&gt;&lt;br&gt;Function will determine whether those two string parameters are Anagrams:&lt;br&gt;Our definition of anagram is limited to:&lt;br&gt;1.) The strings are the exact same length..&amp;nbsp;&amp;nbsp;&amp;nbsp;" style="text;html=1;strokeColor=none;fillColor=none;align=center;verticalAlign=middle;whiteSpace=wrap;rounded=0;" vertex="1" parent="1">
          <mxGeometry x="425" y="20" width="385" height="30" as="geometry" />
        </mxCell>
      </root>
    </mxGraphModel>
  </diagram>
</mxfile>
